<?xml version="1.0" standalone="no"?>
<!DOCTYPE svg PUBLIC "-//W3C//DTD SVG 20010904//EN"
 "http://www.w3.org/TR/2001/REC-SVG-20010904/DTD/svg10.dtd">
<svg version="1.0" xmlns="http://www.w3.org/2000/svg"
 width="512.000000pt" height="512.000000pt" viewBox="0 0 512.000000 512.000000"
 preserveAspectRatio="xMidYMid meet">
<metadata>
Created by potrace 1.11, written by Peter Selinger 2001-2013
</metadata>
<g transform="translate(0.000000,512.000000) scale(0.100000,-0.100000)"
fill="#000000" stroke="none">
<path d="M2418 4985 c-2 -2 -43 -6 -93 -10 -49 -4 -93 -8 -96 -10 -3 -2 -27
-6 -53 -10 -26 -3 -66 -9 -89 -15 -23 -5 -53 -11 -67 -13 -14 -3 -45 -11 -70
-18 -52 -15 -43 -12 -100 -28 -25 -7 -59 -19 -77 -27 -17 -8 -36 -14 -42 -14
-23 0 -285 -121 -381 -176 -56 -32 -235 -150 -252 -167 -7 -6 -47 -39 -88 -72
-130 -104 -323 -309 -404 -430 -15 -22 -30 -42 -34 -45 -8 -6 -82 -118 -82
-124 0 -2 -18 -34 -41 -71 -155 -256 -276 -640 -306 -975 -13 -151 -5 -532 12
-560 2 -3 6 -24 9 -46 7 -42 12 -73 21 -114 3 -14 7 -34 9 -45 46 -238 188
-566 351 -809 270 -403 697 -749 1120 -906 11 -4 34 -13 50 -20 62 -25 243
-78 320 -94 44 -9 91 -19 105 -21 184 -37 491 -46 710 -20 36 4 74 9 85 11 11
2 47 9 80 15 254 45 516 144 793 299 134 75 340 238 476 374 219 220 430 538
526 791 12 33 28 74 35 90 30 69 92 299 111 415 26 159 32 245 29 440 -2 219
-9 306 -26 372 -5 20 -9 40 -8 45 1 4 -1 19 -4 33 -4 14 -14 57 -23 95 -28
121 -83 287 -124 380 -150 334 -287 534 -529 776 -131 130 -211 196 -368 301
-236 160 -579 304 -838 354 -11 2 -31 6 -45 8 -14 3 -43 8 -65 11 -22 3 -53 7
-70 10 -92 14 -146 18 -297 20 -92 1 -169 1 -170 0z"/>
</g>
</svg>
